<svg width="13" height="25" viewBox="0 0 13 25" fill="none" xmlns="http://www.w3.org/2000/svg">
<g clip-path="url(#clip0_16_46)">
<path d="M8.00001 18.48V14.25H9.27001V11.25H8.00001V5.79999C8.20001 5.35999 8.50001 4.97999 8.87001 4.65999C9.10001 4.49999 9.39001 4.33999 9.70001 4.21999C10.087 4.16096 10.4793 4.14419 10.87 4.16999L11.74 4.21999L11.79 3.34999L11.87 2.07999L11.93 1.20999L11.05 1.14999C10.35 1.10999 9.65001 1.14999 8.95001 1.28999L8.90001 1.29999L8.84001 1.31999C8.14001 1.56999 7.55001 1.87999 7.02001 2.26999L7.00001 2.27999L6.97001 2.29999C6.81001 2.42999 6.66001 2.57999 6.51001 2.71999C6.38504 2.58826 6.25494 2.4615 6.12001 2.33999L6.09001 2.30999L6.06001 2.28999C5.50641 1.85847 4.87979 1.52992 4.21001 1.31999L4.17001 1.30999L4.13001 1.29999C3.41065 1.14749 2.67389 1.09367 1.94001 1.13999L1.07001 1.19999L1.13001 2.06999L1.21001 3.33999L1.27001 4.21999L2.14001 4.15999C2.57001 4.12999 2.99001 4.15999 3.41001 4.23999C3.64001 4.31999 3.91001 4.44999 4.15001 4.63999C4.48001 4.93999 4.78001 5.35999 4.99001 5.82999V11.25H3.72001V14.25H4.99001V18.45C4.78001 18.92 4.48001 19.34 4.11001 19.69C3.91001 19.83 3.65001 19.97 3.36001 20.06C3.00001 20.13 2.56001 20.16 2.14001 20.12L1.27001 20.07L1.21001 20.94L1.13001 22.21L1.07001 23.09L1.94001 23.14C2.65001 23.19 3.36001 23.14 4.06001 23H4.10001L4.14001 22.98C4.81916 22.7801 5.45622 22.4582 6.02001 22.03L6.05001 22.01L6.08001 21.98L6.52001 21.55C6.66001 21.69 6.80001 21.82 6.96001 21.95L6.98001 21.97L7.00001 21.98C7.55001 22.4 8.14001 22.71 8.76001 22.93L8.81001 22.95L8.87001 22.96C9.64001 23.13 10.34 23.18 11.04 23.14L11.92 23.09L11.87 22.22L11.8 20.95L11.75 20.08L10.88 20.12C10.46 20.15 10.05 20.12 9.64001 20.04C9.40001 19.94 9.12001 19.79 8.84001 19.59C8.48645 19.2819 8.20046 18.904 8.00001 18.48Z" fill="white" stroke="#615FFF" stroke-width="1.75"/>
</g>
<defs>
<clipPath id="clip0_16_46">
<rect width="13" height="25" fill="white"/>
</clipPath>
</defs>
</svg>
